<svg width="24" height="24" viewBox="0 0 24 24" fill="none" xmlns="http://www.w3.org/2000/svg">
<path d="M21.328 8.00001H18.4L17.776 4.27201C17.6503 3.70796 17.3742 3.18848 16.977 2.76873C16.5798 2.34899 16.0763 2.04464 15.52 1.88801C14.961 1.70909 14.3789 1.61209 13.792 1.60001H10.208C9.62116 1.61209 9.03912 1.70909 8.48004 1.88801C7.92378 2.04464 7.42032 2.34899 7.02311 2.76873C6.6259 3.18848 6.34977 3.70796 6.22404 4.27201L5.60004 8.00001H2.67204C2.54602 7.99924 2.42161 8.02826 2.30893 8.08469C2.19625 8.14113 2.0985 8.22338 2.02364 8.32476C1.94878 8.42613 1.89893 8.54376 1.87814 8.66805C1.85736 8.79235 1.86623 8.91979 1.90404 9.04001L4.91204 19.12C5.06518 19.607 5.36959 20.0324 5.78105 20.3345C6.19251 20.6366 6.68958 20.7997 7.20004 20.8H16.8C17.3078 20.7963 17.8012 20.6317 18.2095 20.3298C18.6177 20.0279 18.9197 19.6044 19.072 19.12L22.08 9.04001C22.1175 8.92108 22.1266 8.79505 22.1066 8.67198C22.0867 8.54891 22.0382 8.4322 21.9652 8.33117C21.8921 8.23014 21.7965 8.14758 21.6859 8.09009C21.5752 8.03259 21.4527 8.00174 21.328 8.00001ZM7.23204 8.00001L7.80804 4.52801C7.87118 4.24452 8.01766 3.9864 8.22865 3.78682C8.43964 3.58724 8.70549 3.45532 8.99204 3.40801C9.38564 3.28321 9.79524 3.21441 10.208 3.20001H13.792C14.2112 3.21387 14.6219 3.28321 15.024 3.40801C15.3106 3.45532 15.5764 3.58724 15.7874 3.78682C15.9984 3.9864 16.1449 4.24452 16.208 4.52801L16.768 8.00001H7.16804H7.23204Z" fill="#AB8000"/>
</svg>
