<svg width="24" height="24" viewBox="0 0 24 24" fill="none" xmlns="http://www.w3.org/2000/svg">
<g clip-path="url(#clip0_571_808)">
<path fill-rule="evenodd" clip-rule="evenodd" d="M12 24C5.37225 24 0 18.6278 0 12C0 5.37225 5.37225 0 12 0C18.6278 0 24 5.37225 24 12C24 18.6278 18.6278 24 12 24ZM12.21 17.4938C12.981 18.027 13.959 18.3442 15.018 18.3442C15.2815 18.3442 15.5413 18.325 15.7972 18.2865C15.885 18.3225 15.9697 18.3668 16.074 18.4268C16.299 18.5588 16.599 18.7612 16.974 19.0343C17.2808 19.2585 17.715 19.0417 17.715 18.6645V17.5687C17.8725 17.4667 18.0212 17.3563 18.1613 17.2372C19.0088 16.5187 19.5 15.5362 19.5 14.4825C19.5 13.7887 19.29 13.14 18.921 12.5798C18.8043 12.9775 18.6467 13.362 18.4508 13.7272C18.5292 13.9697 18.569 14.2215 18.57 14.4825C18.57 15.258 18.204 15.99 17.556 16.539C17.3888 16.6802 17.2087 16.8055 17.0182 16.9132C16.9476 16.953 16.8887 17.0108 16.8477 17.0808C16.8067 17.1508 16.7851 17.2304 16.785 17.3115V17.7795C16.3403 17.4945 16.035 17.3602 15.8025 17.3602C15.7764 17.3611 15.7504 17.3634 15.7245 17.367C15.0729 17.4759 14.4049 17.4322 13.773 17.2395C13.2612 17.3722 12.7382 17.4576 12.2108 17.4945L12.21 17.4938ZM6.6105 15.3022C6.85739 15.512 7.11907 15.7038 7.3935 15.876V17.745C7.3935 18.2175 7.93725 18.4875 8.3205 18.207C9.378 17.4345 10.113 16.998 10.2968 16.9545C10.7218 17.022 11.1537 17.0557 11.5927 17.0557C15.4928 17.0557 18.6863 14.3505 18.6863 10.9657C18.6863 7.58025 15.492 4.875 11.5927 4.875C7.6935 4.875 4.5 7.58025 4.5 10.965C4.5 12.6225 5.2725 14.1683 6.6105 15.3022ZM10.3222 15.8018C9.945 15.8018 9.39375 16.068 8.55675 16.6297V15.552C8.556 15.4506 8.52857 15.3512 8.47723 15.2638C8.42588 15.1764 8.35243 15.104 8.26425 15.054C7.94686 14.8735 7.64662 14.6644 7.36725 14.4293C6.2775 13.5075 5.6625 12.2745 5.6625 10.965C5.6625 8.2575 8.2995 6.024 11.5927 6.024C14.8868 6.024 17.523 8.2575 17.523 10.965C17.523 13.6725 14.8868 15.9067 11.5927 15.9067C11.1947 15.9067 10.8038 15.8743 10.4198 15.8092C10.3874 15.8046 10.3549 15.8021 10.3222 15.8018ZM8.5695 12.1147C9.08325 12.1147 9.4995 11.7023 9.4995 11.1952C9.4995 10.6875 9.08325 10.2758 8.5695 10.2758C8.05575 10.2758 7.6395 10.6875 7.6395 11.1952C7.6395 11.703 8.05575 12.1147 8.5695 12.1147ZM11.5927 12.1147C12.1065 12.1147 12.5228 11.7023 12.5228 11.1952C12.5228 10.6875 12.1065 10.2758 11.5927 10.2758C11.079 10.2758 10.6628 10.6875 10.6628 11.1952C10.6628 11.703 11.079 12.1147 11.5927 12.1147ZM14.616 12.1147C15.1298 12.1147 15.546 11.7023 15.546 11.1952C15.546 10.6875 15.1298 10.2758 14.616 10.2758C14.1023 10.2758 13.686 10.6875 13.686 11.1952C13.686 11.703 14.1023 12.1147 14.616 12.1147Z" fill="#AB8000"/>
</g>
<defs>
<clipPath id="clip0_571_808">
<rect width="24" height="24" fill="white"/>
</clipPath>
</defs>
</svg>
